#N canvas 83 22 1161 745 10;
#X obj -159 -69 osc~ 500;
#X obj -157 -8 *~;
#X obj -155 56 dac~;
#X obj -142 -39 tgl 15 0 empty empty empty 17 7 0 10 -262144 -1 -1
0 1;
#X floatatom -160 -107 5 0 0 0 - - -;
#X msg -164 -147 440;
#X msg -120 -145 494;
#X msg -79 -144 554;
#X msg -34 -143 587;
#X msg 9 -143 660;
#X msg 49 -142 662;
#X obj -164 -205 route 1 2 3 4 5 6;
#X floatatom -165 -246 5 0 0 0 - - -;
#X obj -166 -274 + 1;
#X obj -166 -304 f;
#X msg -118 -330 0;
#X obj -167 -338 bng 15 250 50 0 empty empty empty 17 7 0 10 -262144
-1 -1;
#X obj 493 307 *~;
#X obj 849 38 tgl 15 0 empty empty empty 17 7 0 10 -262144 -1 -1 0
1;
#X obj 490 431 dac~;
#X obj 683 -164 metro 1000;
#X obj 684 -115 bng 15 250 50 0 empty empty empty 17 7 0 10 -262144
-1 -1;
#X obj 631 -216 tgl 15 0 empty empty empty 17 7 0 10 -262144 -1 -1
0 18;
#X obj 495 213 osc~;
#X obj 511 -99 counter 4;
#X obj 512 -74 sel 0 1 2 3 4;
#X floatatom 459 143 5 0 0 0 - - -;
#X floatatom 505 144 5 0 0 0 - - -;
#X floatatom 551 146 5 0 0 0 - - -;
#X floatatom 599 147 5 0 0 0 - - -;
#X floatatom 643 147 5 0 0 0 - - -;
#X floatatom 456 -100 5 0 0 0 - - -;
#X obj 643 1 sel 0 1 2 3 4;
#X floatatom 589 2 5 0 0 0 - - -;
#X obj 642 -22 random 5;
#X obj -150 339 hsl 128 15 0 127 0 0 empty empty empty -2 -8 0 10 -262144
-1 -1 700 1;
#X floatatom -108 360 5 0 0 0 - - -;
#X floatatom -118 424 5 0 0 0 - - -;
#X obj -150 458 osc~;
#X obj -83 403 hradio 15 1 0 8 empty empty empty 0 -8 0 10 -262144
-1 -1 0;
#X floatatom -17 432 5 0 0 0 - - -;
#X floatatom -113 483 5 0 0 0 - - -;
#X obj -148 572 dac~;
#X obj -79 458 / 6;
#X obj -151 518 *~;
#X obj -152 267 bng 15 250 50 0 empty empty empty 17 7 0 10 -262144
-1 -1;
#X obj -152 299 random 128;
#X obj -154 218 metro 1000;
#X obj -153 172 tgl 15 0 empty empty empty 17 7 0 10 -262144 -1 -1
1 1;
#X floatatom -109 177 5 0 0 0 - - -;
#X obj -21 843 bng 15 250 50 0 empty empty empty 17 7 0 10 -262144
-1 -1;
#X obj -23 794 metro 1000;
#X obj -22 748 tgl 15 0 empty empty empty 17 7 0 10 -262144 -1 -1 0
1;
#X obj -115 911 *~;
#X obj -46 877 tgl 15 0 empty empty empty 17 7 0 10 -262144 -1 -1 0
1;
#X obj -113 975 dac~;
#X obj -126 809 osc~;
#X obj -143 695 hsl 128 15 0 127 0 0 empty empty empty -2 -8 0 10 -262144
-1 -1 4800 1;
#X obj -135 753 * 10;
#X obj 765 -326 hsl 128 15 0 127 0 0 empty empty empty -2 -8 0 10 -262144
-1 -1 3000 1;
#X obj 623 -300 random 100;
#X floatatom 553 -252 5 0 0 0 - - -;
#X obj 623 -348 metro 1000;
#X obj 625 -369 bng 15 250 50 0 empty empty empty 17 7 0 10 -262144
-1 -1;
#X obj 83 724 vsl 15 128 0 127 0 0 empty empty empty 0 -9 0 10 -262144
-1 -1 700 1;
#X obj 38 766 * 10;
#X obj 529 244 hradio 15 1 0 8 empty empty empty 0 -8 0 10 -262144
-1 -1 7;
#X obj 520 271 / 10;
#X text -106 -290 einfache Tonleiter ausprobiert \, nicht weiter verfolgt
;
#X text 444 -350 Möglichkeit um die Tonlänge zufällig zu generieren
;
#X text 729 -350 einfacher Slider für die Metrogeschwindigkeit;
#X text 582 -218 ein/aus;
#X text 766 -83 verbindet man den Bang mit dem Toggle bekommt man eine
schöne Pause in der Länge des Metrotaktes;
#X text 745 1 der 5 Ton wird zufällig generiert;
#X text 654 245 Lautstärke;
#X obj 736 -250 * 5;
#X obj -153 394 + 4000;
#X obj -153 365 * 5;
#X text -155 144 einfache Zufallsgenerierung der Frequenz...;
#X text -163 644 ...und Veränderung mit Metro und Freguenz...;
#X obj 288 102 hsl 128 15 0 127 0 0 empty empty empty -2 -8 0 10 -262144
-1 -1 7500 1;
#X obj 334 132 * 5;
#X obj 375 158 phasor~;
#X obj 424 313 *~;
#X obj 274 236 hradio 15 1 0 8 empty empty empty 0 -8 0 10 -262144
-1 -1 0;
#X obj 349 275 / 100;
#X obj 285 7 bng 15 250 50 0 empty empty empty 17 7 0 10 -262144 -1
-1;
#X obj 285 39 random 128;
#X obj 283 -42 metro 1000;
#X obj 284 -88 tgl 15 0 empty empty empty 17 7 0 10 -262144 -1 -1 1
1;
#X floatatom 776 -286 5 0 0 0 - - -;
#X obj 357 -192 hsl 128 15 0 127 0 0 empty empty empty -2 -8 0 10 -262144
-1 -1 3000 1;
#X obj 328 -116 * 5;
#X floatatom 368 -152 5 0 0 0 - - -;
#X text 60 -55 ...über den Radiobutton kann man nun einen zufällig
generierten Phasor einbauen und auch hier die Geschwindigkeit der Frequenz
ändern...;
#X text -4 -372 SORRY!! ICH HABE EINFACH EIN WENIG RUMGESPIELT UND
DIE ERGENISSE SO GELASSEN... \; -) Die linke Seite sind einfach Experimente...
;
#X text 647 92 Habe extra eine "Numbers" gewählt um schneller die Frequenz
einstellen zu können... nur leider stehen die am Anfang immer auf 0
\, müssen also immer neu eingestellt werden...;
#X connect 0 0 1 0;
#X connect 1 0 2 0;
#X connect 1 0 2 1;
#X connect 3 0 1 1;
#X connect 4 0 0 0;
#X connect 5 0 4 0;
#X connect 6 0 4 0;
#X connect 7 0 4 0;
#X connect 8 0 4 0;
#X connect 9 0 4 0;
#X connect 10 0 4 0;
#X connect 11 0 5 0;
#X connect 11 1 6 0;
#X connect 11 2 7 0;
#X connect 11 3 8 0;
#X connect 11 4 9 0;
#X connect 11 5 10 0;
#X connect 12 0 11 0;
#X connect 13 0 12 0;
#X connect 13 0 14 1;
#X connect 14 0 13 0;
#X connect 15 0 14 1;
#X connect 16 0 14 0;
#X connect 17 0 19 0;
#X connect 17 0 19 1;
#X connect 18 0 17 1;
#X connect 20 0 21 0;
#X connect 21 0 24 0;
#X connect 21 0 18 0;
#X connect 22 0 20 0;
#X connect 23 0 17 0;
#X connect 24 0 25 0;
#X connect 24 0 31 0;
#X connect 25 0 26 0;
#X connect 25 1 27 0;
#X connect 25 2 28 0;
#X connect 25 3 29 0;
#X connect 25 4 34 0;
#X connect 26 0 23 0;
#X connect 27 0 23 0;
#X connect 28 0 23 0;
#X connect 29 0 23 0;
#X connect 30 0 23 0;
#X connect 32 0 26 0;
#X connect 32 1 27 0;
#X connect 32 2 28 0;
#X connect 32 3 29 0;
#X connect 32 4 30 0;
#X connect 34 0 32 0;
#X connect 34 0 33 0;
#X connect 35 0 36 0;
#X connect 35 0 77 0;
#X connect 38 0 44 0;
#X connect 39 0 43 0;
#X connect 39 0 40 0;
#X connect 41 0 44 1;
#X connect 43 0 41 0;
#X connect 44 0 42 0;
#X connect 44 0 42 1;
#X connect 45 0 46 0;
#X connect 46 0 35 0;
#X connect 47 0 45 0;
#X connect 48 0 47 0;
#X connect 49 0 47 1;
#X connect 50 0 54 0;
#X connect 51 0 50 0;
#X connect 52 0 51 0;
#X connect 53 0 55 0;
#X connect 54 0 53 1;
#X connect 56 0 53 0;
#X connect 57 0 58 0;
#X connect 58 0 56 0;
#X connect 59 0 75 0;
#X connect 59 0 90 0;
#X connect 60 0 61 0;
#X connect 62 0 60 0;
#X connect 63 0 62 0;
#X connect 64 0 65 0;
#X connect 65 0 51 1;
#X connect 66 0 67 0;
#X connect 67 0 17 1;
#X connect 75 0 20 1;
#X connect 76 0 37 0;
#X connect 76 0 38 0;
#X connect 77 0 76 0;
#X connect 80 0 81 0;
#X connect 81 0 82 0;
#X connect 82 0 83 0;
#X connect 83 0 19 0;
#X connect 83 0 19 1;
#X connect 84 0 85 0;
#X connect 85 0 83 1;
#X connect 86 0 87 0;
#X connect 87 0 80 0;
#X connect 88 0 86 0;
#X connect 89 0 88 0;
#X connect 91 0 92 0;
#X connect 91 0 93 0;
#X connect 92 0 88 1;
